<svg xmlns="http://www.w3.org/2000/svg" viewBox="-25 0 250 200"><rect x="-25" width="250" height="200" fill="#dcefff"/><g stroke="#c4dcf2" stroke-width="1.2"><path d="M0 100h200M0 120h200M0 140h200M0 160h200M20 100v72M50 100v72M80 100v72M110 100v72M140 100v72M170 100v72"/></g><rect x="100" y="24" width="66" height="70" rx="33" fill="#f5fbff" stroke="#b98a5b" stroke-width="5"/><path d="M118 42l14-10M122 56l24-18" stroke="#cfe6f7" stroke-width="3" stroke-linecap="round"/><rect x="84" y="112" width="98" height="8" rx="3" fill="#ffffff" stroke="#c9d6df" stroke-width="1.5"/><path d="M108 112a25 9 0 0 0 50 0" fill="#e8f1f6"/><path d="M133 112v-12h7" fill="none" stroke="#90a4ae" stroke-width="3" stroke-linecap="round"/><rect x="88" y="120" width="90" height="46" rx="2" fill="#c98a4b"/><g fill="#dca56b" stroke="#a86d34" stroke-width="1.5"><rect x="92" y="124" width="40" height="38" rx="2"/><rect x="134" y="124" width="40" height="38" rx="2"/></g><g fill="#5b3616"><rect x="126" y="136" width="3" height="12" rx="1.5"/><rect x="137" y="136" width="3" height="12" rx="1.5"/></g><rect x="94" y="166" width="6" height="6" fill="#8b5a2b"/><rect x="166" y="166" width="6" height="6" fill="#8b5a2b"/><rect x="18" y="112" width="26" height="4" rx="2" fill="#90a4ae"/><rect x="22" y="116" width="18" height="34" rx="3" fill="#1e88e5"/><path d="M22 128h18" stroke="#64b5f6" stroke-width="3"/><rect x="-25" y="172" width="250" height="28" fill="#e3c39a"/><path d="M-25 172h250" stroke="#c9a57a" stroke-width="2"/><path d="M15 172v28M72 172v28M129 172v28M186 172v28M-25 186h250" stroke="#d2b08a" stroke-width="1"/></svg>