<svg xmlns="http://www.w3.org/2000/svg" viewBox="-25 0 250 200"><rect x="-25" width="250" height="200" fill="#fde2e2"/><path d="M128 0v58" stroke="#5b3616" stroke-width="2"/><path d="M110 74l6-16h24l6 16z" fill="#e0474c"/><ellipse cx="128" cy="76" rx="8" ry="3" fill="#ffe28a"/><rect x="60" y="116" width="120" height="8" rx="2" fill="#b8763a"/><rect x="66" y="124" width="7" height="48" fill="#8b5a2b"/><rect x="167" y="124" width="7" height="48" fill="#8b5a2b"/><ellipse cx="110" cy="112" rx="14" ry="4" fill="#fff" stroke="#e0b4b4"/><circle cx="142" cy="108" r="7" fill="#f5a623"/><circle cx="135" cy="111" r="5" fill="#2e9e5b"/><g fill="#d89454" stroke="#a86d34" stroke-width="1.5"><rect x="34" y="92" width="6" height="80"/><rect x="34" y="130" width="30" height="6"/><rect x="58" y="136" width="6" height="36"/></g><g fill="#d89454" stroke="#a86d34" stroke-width="1.5"><rect x="190" y="92" width="6" height="80"/><rect x="170" y="130" width="26" height="6"/></g><rect x="-25" y="172" width="250" height="28" fill="#e3c39a"/><path d="M-25 172h250" stroke="#c9a57a" stroke-width="2"/><path d="M15 172v28M72 172v28M129 172v28M186 172v28M-25 186h250" stroke="#d2b08a" stroke-width="1"/></svg>