<svg xmlns="http://www.w3.org/2000/svg" viewBox="0 0 200 200"><rect width="200" height="200" fill="#ebe3fa"/><rect x="70" y="62" width="104" height="60" rx="4" fill="#26222e"/><rect x="75" y="67" width="94" height="50" rx="2" fill="#3b3350"/><path d="M78 110l30-30 20 20 16-14 22 24z" fill="#7e57c2" opacity=".85"/><circle cx="150" cy="80" r="7" fill="#f5a623"/><rect x="116" y="122" width="12" height="10" fill="#26222e"/><rect x="18" y="132" width="176" height="36" rx="3" fill="#c98a4b"/><g fill="#dca56b" stroke="#a86d34" stroke-width="1.5"><rect x="22" y="136" width="52" height="28" rx="2"/><rect x="138" y="136" width="52" height="28" rx="2"/></g><rect x="78" y="136" width="56" height="28" fill="#8b5a2b"/><path d="M78 150h56" stroke="#c98a4b" stroke-width="3"/><rect x="86" y="140" width="16" height="8" rx="1" fill="#e0474c"/><rect x="108" y="154" width="20" height="8" rx="1" fill="#1e88e5"/><g fill="#5b3616"><rect x="44" y="148" width="10" height="3" rx="1.5"/><rect x="158" y="148" width="10" height="3" rx="1.5"/></g><rect x="24" y="168" width="5" height="4" fill="#5b3616"/><rect x="183" y="168" width="5" height="4" fill="#5b3616"/><path d="M36 132c-6-14 0-26 6-30M42 132c2-14 10-22 18-24" fill="none" stroke="#2e9e5b" stroke-width="4" stroke-linecap="round"/><rect y="172" width="200" height="28" fill="#e3c39a"/><path d="M0 172h200" stroke="#c9a57a" stroke-width="2"/><path d="M40 172v28M97 172v28M154 172v28M0 186h200" stroke="#d2b08a" stroke-width="1"/></svg>